# xmcd
# 
# Track frame offsets:
#     150
#     18542
#     32917
#     46172
#     59627
#     78037
#     99525
#     113885
#     127230
#     144402
#     163922
#     180180
# 
# Disc length: 2612
# 
# Revision: 5
# Processed by: cddbd v1.5.2PL0 Copyright (c) Steve Scherf et al.
# Submitted via: fre:ac v1.0.31
# 
DISCID=9f0a320c
DTITLE=Columbia Blues - Blind Gary davis Harlem Street Singer
DYEAR=1960
DGENRE=Blues
TTITLE0=Samson and Delilah
TTITLE1=Let Us Get Together Right Down Here
TTITLE2=I Belong to the Band
TTITLE3=Pure Religion
TTITLE4=Great Change Since I Been Born
TTITLE5=Death Don't Have No Mercy
TTITLE6=Twelve Gates to the City
TTITLE7=Goin' to Sit Down on the Banks of the River
TTITLE8=Tryin' to Get Home
TTITLE9=Lo, I Be With You Always
TTITLE10=I Am the Light of this World
TTITLE11=Lord, I Feel Just Like Goin' On
EXTD=PRESTIGE - BLUESVILLE  \nORIGINAL RECORDING AUGUST 24, 1960\n\tENGLEWOOD CLIFFS, NJ\nREMASTERED 1992\n\tFANTASY STUDIOS, BERKELEY
EXTT0=
EXTT1=
EXTT2=
EXTT3=
EXTT4=
EXTT5=
EXTT6=
EXTT7=
EXTT8=
EXTT9=
EXTT10=
EXTT11=
PLAYORDER=
